<svg width="20" height="20" fill="none" xmlns="http://www.w3.org/2000/svg"><path d="M6.293 6.77c.974-.974 2.149-1.461 3.524-1.461s2.535.487 3.48 1.46c.974.946 1.461 2.106 1.461 3.481s-.487 2.55-1.461 3.523c-.945.946-2.105 1.418-3.48 1.418s-2.55-.472-3.524-1.418c-.945-.973-1.418-2.148-1.418-3.523s.473-2.535 1.418-3.48zm1.246 5.757c.63.63 1.39.946 2.278.946a3.1 3.1 0 002.277-.946c.63-.63.945-1.389.945-2.277 0-.888-.315-1.647-.945-2.277a3.104 3.104 0 00-2.277-.946c-.888 0-1.648.315-2.278.946a3.104 3.104 0 00-.945 2.277c0 .888.315 1.647.945 2.277zm8.207-8.207c.23.2.344.459.344.774s-.115.587-.344.816a.98.98 0 01-.773.344c-.315 0-.587-.115-.817-.344a1.115 1.115 0 01-.343-.816.98.98 0 01.343-.774c.23-.229.502-.343.817-.343a.98.98 0 01.773.343zM19.4 6.297c.028.773.043 2.091.043 3.953 0 1.862-.015 3.18-.043 3.953-.086 1.748-.616 3.108-1.59 4.082-.946.945-2.292 1.447-4.04 1.504-.773.057-2.09.086-3.952.086s-3.18-.029-3.954-.086c-1.747-.086-3.093-.602-4.039-1.547a4.148 4.148 0 01-.902-1.203 7.057 7.057 0 01-.516-1.332 7.744 7.744 0 01-.129-1.504C.22 13.43.192 12.112.192 10.25c0-1.862.028-3.194.085-3.996.086-1.719.602-3.05 1.547-3.996.946-.974 2.292-1.504 4.04-1.59.773-.029 2.09-.043 3.953-.043 1.861 0 3.18.014 3.953.043 1.747.086 3.093.616 4.039 1.59.974.945 1.504 2.291 1.59 4.039zm-2.063 9.625a4.67 4.67 0 00.215-.86c.057-.372.1-.802.129-1.289.029-.515.043-.93.043-1.246V7.973c0-.315-.014-.716-.043-1.203a12.145 12.145 0 00-.13-1.29 4.66 4.66 0 00-.214-.902c-.344-.888-.96-1.504-1.848-1.848a4.654 4.654 0 00-.902-.214c-.344-.058-.773-.1-1.289-.13a21.23 21.23 0 00-1.203-.042H7.539c-.315 0-.73.014-1.246.043-.487.028-.917.071-1.289.129a4.68 4.68 0 00-.86.214c-.887.344-1.503.96-1.847 1.848-.086.23-.158.53-.215.902-.057.344-.1.774-.129 1.29a21.24 21.24 0 00-.043 1.203v5.155c.029.43.058.803.086 1.118a11.39 11.39 0 00.301 1.676c.372.888.988 1.504 1.848 1.848.229.085.515.157.86.214.371.058.801.1 1.288.13.516.028.917.042 1.203.042h4.598c.315 0 .716-.014 1.203-.043.516-.028.945-.071 1.29-.129a4.65 4.65 0 00.901-.215c.888-.372 1.504-.988 1.848-1.847z" fill="#252525"/></svg>