<svg width="104" height="16" fill="none" xmlns="http://www.w3.org/2000/svg"><path d="M7.088 1.402c.176-.351.459-.527.85-.527.39 0 .673.176.85.527L10.69 5.27l4.278.644c.39.04.644.244.761.615.118.371.04.694-.234.967l-3.105 3.018.732 4.277c.059.371-.068.664-.38.879-.313.234-.636.264-.968.088l-3.838-1.992L4.1 15.758c-.332.195-.655.176-.967-.059-.313-.234-.44-.537-.381-.908l.732-4.277L.38 7.496C.105 7.223.027 6.9.145 6.53c.117-.37.37-.576.761-.615l4.278-.644 1.904-3.868zm21.875 0c.176-.351.459-.527.85-.527.39 0 .673.176.85.527l1.903 3.868 4.278.644c.39.04.644.244.761.615.118.371.04.694-.234.967l-3.105 3.018.732 4.277c.059.371-.068.664-.38.879-.313.234-.636.264-.968.088l-3.837-1.992-3.838 1.992c-.332.195-.655.176-.967-.059-.313-.234-.44-.537-.381-.908l.732-4.277-3.105-3.018c-.274-.273-.352-.596-.235-.967.118-.37.372-.576.762-.615l4.278-.644 1.904-3.868zm21.875 0c.176-.351.459-.527.85-.527.39 0 .673.176.85.527L54.44 5.27l4.278.644c.39.04.644.244.761.615.118.371.04.694-.234.967l-3.105 3.018.732 4.277c.059.371-.068.664-.38.879-.313.234-.636.264-.968.088l-3.837-1.992-3.838 1.992c-.332.195-.655.176-.967-.059-.313-.234-.44-.537-.381-.908l.732-4.277-3.105-3.018c-.273-.273-.352-.596-.234-.967.117-.37.37-.576.761-.615l4.278-.644 1.904-3.868zm21.875 0c.176-.351.459-.527.85-.527.39 0 .673.176.85.527l1.903 3.868 4.278.644c.39.04.644.244.762.615.117.371.038.694-.235.967l-3.105 3.018.732 4.277c.059.371-.068.664-.38.879-.313.234-.636.264-.968.088l-3.838-1.992-3.837 1.992c-.332.195-.655.176-.967-.059-.313-.234-.44-.537-.381-.908l.732-4.277-3.105-3.018c-.273-.273-.352-.596-.235-.967.118-.37.372-.576.762-.615l4.278-.644 1.904-3.868zm21.875 0c.176-.351.459-.527.85-.527.39 0 .673.176.85.527L98.19 5.27l4.278.644c.39.04.644.244.761.615.118.371.04.694-.234.967l-3.105 3.018.732 4.277c.059.371-.068.664-.381.879-.312.234-.635.264-.967.088l-3.838-1.992-3.837 1.992c-.332.195-.655.176-.967-.059-.313-.234-.44-.537-.381-.908l.732-4.277-3.105-3.018c-.273-.273-.352-.596-.235-.967.118-.37.372-.576.762-.615l4.278-.644 1.904-3.868z" fill="#F6A71B"/></svg>