<svg width="16" height="16" fill="none" xmlns="http://www.w3.org/2000/svg"><path d="M14.955 6.047a1.016 1.016 0 00-.902-.705l-3.687-.258L8.998 1.64a1.014 1.014 0 00-.944-.647h-.001a1.013 1.013 0 00-.943.647L5.722 5.104l-3.667.238a1.016 1.016 0 00-.902.705 1.036 1.036 0 00.32 1.122l2.82 2.384-.838 3.3a1.14 1.14 0 00.435 1.212 1.106 1.106 0 001.246.039l2.91-1.844c.004-.002.008-.004.016 0l3.132 1.984a1.002 1.002 0 001.13-.035 1.033 1.033 0 00.395-1.097l-.892-3.606 2.808-2.337a1.036 1.036 0 00.32-1.122z" fill="#F6A71B"/></svg>