<svg width="23" height="18" fill="none" xmlns="http://www.w3.org/2000/svg"><path d="M19.92 4.574c.03.114.044.3.044.558 0 1.519-.287 3.037-.86 4.555a14.418 14.418 0 01-2.449 4.125c-1.031 1.232-2.378 2.234-4.039 3.008-1.661.773-3.495 1.16-5.5 1.16-2.52 0-4.827-.673-6.918-2.02.315.03.673.043 1.074.043 2.091 0 3.968-.644 5.63-1.933-1.003 0-1.891-.287-2.665-.86a4.66 4.66 0 01-1.547-2.234c.287.029.559.043.817.043.4 0 .802-.043 1.203-.129a4.384 4.384 0 01-1.848-.86 4.778 4.778 0 01-1.289-1.546 4.455 4.455 0 01-.473-2.02v-.086c.63.373 1.304.573 2.02.602C1.774 6.063 1.1 4.803 1.1 3.199c0-.802.215-1.561.645-2.278a12.51 12.51 0 009.281 4.727 6.262 6.262 0 01-.086-1.031c0-1.232.43-2.292 1.29-3.18.887-.888 1.947-1.332 3.179-1.332 1.318 0 2.42.473 3.309 1.418A9.18 9.18 0 0021.596.449c-.343 1.06-1.002 1.89-1.976 2.492a9.692 9.692 0 002.578-.73 9.918 9.918 0 01-2.277 2.363z" fill="#252525"/></svg>