<svg width="12" height="23" viewBox="0 0 12 23" fill="none" xmlns="http://www.w3.org/2000/svg">
<path d="M11.1133 12.4175H7.89066V22.0425H3.59378V12.4175H0.113311V8.42139H3.59378V5.41357C3.59378 4.26774 3.80862 3.29378 4.23831 2.4917C4.668 1.68962 5.26956 1.08805 6.043 0.687012C6.84508 0.257324 7.76175 0.0424805 8.793 0.0424805C9.25133 0.0424805 9.73831 0.0711263 10.2539 0.128418C10.7696 0.157064 11.1706 0.200033 11.4571 0.257324L11.8867 0.300293V3.69482H10.168C9.36592 3.69482 8.77868 3.90967 8.40628 4.33936C8.06253 4.7404 7.89066 5.2417 7.89066 5.84326V8.42139H11.7149L11.1133 12.4175Z" fill="#252525"/>
</svg>
