<svg width="20" height="20" viewBox="0 0 20 20" fill="none" xmlns="http://www.w3.org/2000/svg">
<path d="M6.29312 6.76953C7.26707 5.79557 8.44155 5.30859 9.81655 5.30859C11.1916 5.30859 12.3517 5.79557 13.297 6.76953C14.271 7.71484 14.758 8.875 14.758 10.25C14.758 11.625 14.271 12.7995 13.297 13.7734C12.3517 14.7188 11.1916 15.1914 9.81655 15.1914C8.44155 15.1914 7.26707 14.7188 6.29312 13.7734C5.3478 12.7995 4.87515 11.625 4.87515 10.25C4.87515 8.875 5.3478 7.71484 6.29312 6.76953ZM7.53921 12.5273C8.16942 13.1576 8.92853 13.4727 9.81655 13.4727C10.7046 13.4727 11.4637 13.1576 12.0939 12.5273C12.7241 11.8971 13.0392 11.138 13.0392 10.25C13.0392 9.36198 12.7241 8.60286 12.0939 7.97266C11.4637 7.34245 10.7046 7.02734 9.81655 7.02734C8.92853 7.02734 8.16942 7.34245 7.53921 7.97266C6.909 8.60286 6.5939 9.36198 6.5939 10.25C6.5939 11.138 6.909 11.8971 7.53921 12.5273ZM15.7462 4.32031C15.9754 4.52083 16.09 4.77865 16.09 5.09375C16.09 5.40885 15.9754 5.68099 15.7462 5.91016C15.5457 6.13932 15.2879 6.25391 14.9728 6.25391C14.6577 6.25391 14.3856 6.13932 14.1564 5.91016C13.9272 5.68099 13.8126 5.40885 13.8126 5.09375C13.8126 4.77865 13.9272 4.52083 14.1564 4.32031C14.3856 4.09115 14.6577 3.97656 14.9728 3.97656C15.2879 3.97656 15.5457 4.09115 15.7462 4.32031ZM19.3986 6.29688C19.4272 7.07031 19.4416 8.38802 19.4416 10.25C19.4416 12.112 19.4272 13.4297 19.3986 14.2031C19.3126 15.9505 18.7827 17.3112 17.8087 18.2852C16.8634 19.2305 15.5171 19.7318 13.7697 19.7891C12.9962 19.8464 11.6785 19.875 9.81655 19.875C7.95457 19.875 6.63687 19.8464 5.86343 19.7891C4.11603 19.7031 2.76968 19.1875 1.82437 18.2422C1.45197 17.8984 1.15119 17.4974 0.922023 17.0391C0.692856 16.5807 0.520981 16.1367 0.406398 15.707C0.32046 15.2773 0.277492 14.776 0.277492 14.2031C0.2202 13.4297 0.191554 12.112 0.191554 10.25C0.191554 8.38802 0.2202 7.05599 0.277492 6.25391C0.363429 4.53516 0.879054 3.20312 1.82437 2.25781C2.76968 1.28385 4.11603 0.753906 5.86343 0.667969C6.63687 0.639323 7.95457 0.625 9.81655 0.625C11.6785 0.625 12.9962 0.639323 13.7697 0.667969C15.5171 0.753906 16.8634 1.28385 17.8087 2.25781C18.7827 3.20312 19.3126 4.54948 19.3986 6.29688ZM17.3361 15.9219C17.422 15.6927 17.4936 15.4062 17.5509 15.0625C17.6082 14.6901 17.6512 14.2604 17.6798 13.7734C17.7085 13.2578 17.7228 12.8424 17.7228 12.5273C17.7228 12.2122 17.7228 11.7682 17.7228 11.1953C17.7228 10.6224 17.7228 10.3073 17.7228 10.25C17.7228 10.1641 17.7228 9.84896 17.7228 9.30469C17.7228 8.73177 17.7228 8.28776 17.7228 7.97266C17.7228 7.65755 17.7085 7.25651 17.6798 6.76953C17.6512 6.25391 17.6082 5.82422 17.5509 5.48047C17.4936 5.10807 17.422 4.80729 17.3361 4.57812C16.9923 3.6901 16.3764 3.07422 15.4884 2.73047C15.2593 2.64453 14.9585 2.57292 14.5861 2.51562C14.2423 2.45833 13.8126 2.41536 13.297 2.38672C12.81 2.35807 12.409 2.34375 12.0939 2.34375C11.8074 2.34375 11.3634 2.34375 10.7619 2.34375C10.1889 2.34375 9.87385 2.34375 9.81655 2.34375C9.75926 2.34375 9.44416 2.34375 8.87124 2.34375C8.29832 2.34375 7.85431 2.34375 7.53921 2.34375C7.22411 2.34375 6.80874 2.35807 6.29312 2.38672C5.80614 2.41536 5.37645 2.45833 5.00405 2.51562C4.6603 2.57292 4.37385 2.64453 4.14468 2.73047C3.25666 3.07422 2.64077 3.6901 2.29702 4.57812C2.21109 4.80729 2.13947 5.10807 2.08218 5.48047C2.02489 5.82422 1.98192 6.25391 1.95327 6.76953C1.92463 7.25651 1.9103 7.65755 1.9103 7.97266C1.9103 8.25911 1.9103 8.70312 1.9103 9.30469C1.9103 9.8776 1.9103 10.1927 1.9103 10.25C1.9103 10.3646 1.9103 10.6367 1.9103 11.0664C1.9103 11.4674 1.9103 11.8112 1.9103 12.0977C1.9103 12.3555 1.9103 12.6992 1.9103 13.1289C1.93895 13.5586 1.9676 13.931 1.99624 14.2461C2.02489 14.5326 2.06786 14.8333 2.12515 15.1484C2.18244 15.4635 2.23973 15.7214 2.29702 15.9219C2.66942 16.8099 3.2853 17.4258 4.14468 17.7695C4.37385 17.8555 4.6603 17.9271 5.00405 17.9844C5.37645 18.0417 5.80614 18.0846 6.29312 18.1133C6.80874 18.1419 7.20978 18.1562 7.49624 18.1562C7.81135 18.1562 8.25536 18.1562 8.82827 18.1562C9.42984 18.1562 9.75926 18.1562 9.81655 18.1562C9.90249 18.1562 10.2176 18.1562 10.7619 18.1562C11.3348 18.1562 11.7788 18.1562 12.0939 18.1562C12.409 18.1562 12.81 18.1419 13.297 18.1133C13.8126 18.0846 14.2423 18.0417 14.5861 17.9844C14.9585 17.9271 15.2593 17.8555 15.4884 17.7695C16.3764 17.3971 16.9923 16.7812 17.3361 15.9219Z" fill="#252525"/>
</svg>
