<svg width="16" height="16" viewBox="0 0 16 16" fill="none" xmlns="http://www.w3.org/2000/svg">
<path d="M14.9554 6.04741C14.8934 5.85273 14.7741 5.68126 14.6132 5.55538C14.4523 5.42949 14.2571 5.35503 14.0533 5.34172L10.3662 5.08369L8.99847 1.63962C8.92446 1.44922 8.79465 1.28562 8.62606 1.17025C8.45746 1.05488 8.25796 0.993138 8.05367 0.993103H8.0527C7.84873 0.993467 7.64962 1.05537 7.4814 1.17072C7.31318 1.28607 7.18368 1.44949 7.10984 1.63962L5.72174 5.10357L2.05505 5.34172C1.85117 5.35503 1.65603 5.42949 1.49511 5.55538C1.33418 5.68126 1.21494 5.85273 1.15293 6.04741C1.08751 6.24485 1.08306 6.45741 1.14016 6.65742C1.19725 6.85742 1.31324 7.0356 1.47303 7.16876L4.29386 9.55307L3.45479 12.8536C3.39696 13.0759 3.40759 13.3105 3.4853 13.5267C3.56302 13.7428 3.70418 13.9305 3.89033 14.0651C4.07005 14.1959 4.28496 14.2695 4.50711 14.2764C4.72925 14.2834 4.94833 14.2232 5.13584 14.1039L8.04591 12.2604C8.04979 12.2575 8.05367 12.2556 8.0624 12.2604L11.1936 14.2441C11.3636 14.3527 11.5624 14.4075 11.7641 14.4013C11.9657 14.395 12.1608 14.3281 12.3237 14.2092C12.4924 14.0873 12.6203 13.9173 12.6908 13.7214C12.7612 13.5256 12.7709 13.313 12.7185 13.1116L11.8271 9.50602L14.6353 7.16876C14.7951 7.0356 14.9111 6.85742 14.9682 6.65742C15.0252 6.45741 15.0208 6.24485 14.9554 6.04741Z" fill="#F6A71B"/>
</svg>
