<svg width="104" height="16" viewBox="0 0 104 16" fill="none" xmlns="http://www.w3.org/2000/svg">
<path d="M7.08789 1.40234C7.26367 1.05078 7.54688 0.875 7.9375 0.875C8.32812 0.875 8.61133 1.05078 8.78711 1.40234L10.6914 5.26953L14.9688 5.91406C15.3594 5.95312 15.6133 6.1582 15.7305 6.5293C15.8477 6.90039 15.7695 7.22266 15.4961 7.49609L12.3906 10.5137L13.123 14.791C13.1816 15.1621 13.0547 15.4551 12.7422 15.6699C12.4297 15.9043 12.1074 15.9336 11.7754 15.7578L7.9375 13.7656L4.09961 15.7578C3.76758 15.9531 3.44531 15.9336 3.13281 15.6992C2.82031 15.4648 2.69336 15.1621 2.75195 14.791L3.48438 10.5137L0.378906 7.49609C0.105469 7.22266 0.0273438 6.90039 0.144531 6.5293C0.261719 6.1582 0.515625 5.95312 0.90625 5.91406L5.18359 5.26953L7.08789 1.40234ZM28.9629 1.40234C29.1387 1.05078 29.4219 0.875 29.8125 0.875C30.2031 0.875 30.4863 1.05078 30.6621 1.40234L32.5664 5.26953L36.8438 5.91406C37.2344 5.95312 37.4883 6.1582 37.6055 6.5293C37.7227 6.90039 37.6445 7.22266 37.3711 7.49609L34.2656 10.5137L34.998 14.791C35.0566 15.1621 34.9297 15.4551 34.6172 15.6699C34.3047 15.9043 33.9824 15.9336 33.6504 15.7578L29.8125 13.7656L25.9746 15.7578C25.6426 15.9531 25.3203 15.9336 25.0078 15.6992C24.6953 15.4648 24.5684 15.1621 24.627 14.791L25.3594 10.5137L22.2539 7.49609C21.9805 7.22266 21.9023 6.90039 22.0195 6.5293C22.1367 6.1582 22.3906 5.95312 22.7812 5.91406L27.0586 5.26953L28.9629 1.40234ZM50.8379 1.40234C51.0137 1.05078 51.2969 0.875 51.6875 0.875C52.0781 0.875 52.3613 1.05078 52.5371 1.40234L54.4414 5.26953L58.7188 5.91406C59.1094 5.95312 59.3633 6.1582 59.4805 6.5293C59.5977 6.90039 59.5195 7.22266 59.2461 7.49609L56.1406 10.5137L56.873 14.791C56.9316 15.1621 56.8047 15.4551 56.4922 15.6699C56.1797 15.9043 55.8574 15.9336 55.5254 15.7578L51.6875 13.7656L47.8496 15.7578C47.5176 15.9531 47.1953 15.9336 46.8828 15.6992C46.5703 15.4648 46.4434 15.1621 46.502 14.791L47.2344 10.5137L44.1289 7.49609C43.8555 7.22266 43.7773 6.90039 43.8945 6.5293C44.0117 6.1582 44.2656 5.95312 44.6562 5.91406L48.9336 5.26953L50.8379 1.40234ZM72.7129 1.40234C72.8887 1.05078 73.1719 0.875 73.5625 0.875C73.9531 0.875 74.2363 1.05078 74.4121 1.40234L76.3164 5.26953L80.5938 5.91406C80.9844 5.95312 81.2383 6.1582 81.3555 6.5293C81.4727 6.90039 81.3945 7.22266 81.1211 7.49609L78.0156 10.5137L78.748 14.791C78.8066 15.1621 78.6797 15.4551 78.3672 15.6699C78.0547 15.9043 77.7324 15.9336 77.4004 15.7578L73.5625 13.7656L69.7246 15.7578C69.3926 15.9531 69.0703 15.9336 68.7578 15.6992C68.4453 15.4648 68.3184 15.1621 68.377 14.791L69.1094 10.5137L66.0039 7.49609C65.7305 7.22266 65.6523 6.90039 65.7695 6.5293C65.8867 6.1582 66.1406 5.95312 66.5312 5.91406L70.8086 5.26953L72.7129 1.40234ZM94.5879 1.40234C94.7637 1.05078 95.0469 0.875 95.4375 0.875C95.8281 0.875 96.1113 1.05078 96.2871 1.40234L98.1914 5.26953L102.469 5.91406C102.859 5.95312 103.113 6.1582 103.23 6.5293C103.348 6.90039 103.27 7.22266 102.996 7.49609L99.8906 10.5137L100.623 14.791C100.682 15.1621 100.555 15.4551 100.242 15.6699C99.9297 15.9043 99.6074 15.9336 99.2754 15.7578L95.4375 13.7656L91.5996 15.7578C91.2676 15.9531 90.9453 15.9336 90.6328 15.6992C90.3203 15.4648 90.1934 15.1621 90.252 14.791L90.9844 10.5137L87.8789 7.49609C87.6055 7.22266 87.5273 6.90039 87.6445 6.5293C87.7617 6.1582 88.0156 5.95312 88.4062 5.91406L92.6836 5.26953L94.5879 1.40234Z" fill="#F6A71B"/>
</svg>
