<svg width="23" height="18" viewBox="0 0 23 18" fill="none" xmlns="http://www.w3.org/2000/svg">
<path d="M19.9207 4.57373C19.9494 4.68831 19.9637 4.87451 19.9637 5.13232C19.9637 6.65055 19.6772 8.16878 19.1043 9.68701C18.5314 11.1766 17.715 12.5516 16.6551 13.812C15.6238 15.0438 14.2775 16.0464 12.616 16.8198C10.9546 17.5933 9.12124 17.98 7.11603 17.98C4.5952 17.98 2.28921 17.3068 0.198063 15.9604C0.513167 15.9891 0.87124 16.0034 1.27228 16.0034C3.36343 16.0034 5.23973 15.3589 6.90119 14.0698C5.89858 14.0698 5.01056 13.7834 4.23713 13.2104C3.49233 12.6089 2.97671 11.8641 2.69025 10.9761C2.97671 11.0047 3.24884 11.019 3.50666 11.019C3.9077 11.019 4.30874 10.9761 4.70978 10.8901C4.02228 10.7469 3.4064 10.4604 2.86213 10.0308C2.31785 9.60107 1.88817 9.08545 1.57306 8.48389C1.25796 7.85368 1.10041 7.1805 1.10041 6.46436V6.37842C1.73061 6.75081 2.40379 6.95133 3.11994 6.97998C1.77358 6.06331 1.10041 4.8029 1.10041 3.19873C1.10041 2.39665 1.31525 1.63753 1.74494 0.921387C2.86213 2.32503 4.2228 3.44222 5.82697 4.27295C7.45978 5.10368 9.19285 5.56201 11.0262 5.64795C10.9689 5.3042 10.9403 4.96045 10.9403 4.6167C10.9403 3.38493 11.3699 2.32503 12.2293 1.43701C13.1173 0.548991 14.1772 0.10498 15.409 0.10498C16.7267 0.10498 17.8296 0.577637 18.7176 1.52295C19.7488 1.32243 20.7085 0.964355 21.5965 0.44873C21.2528 1.50863 20.5939 2.33936 19.6199 2.94092C20.4793 2.82633 21.3387 2.58285 22.1981 2.21045C21.5679 3.12712 20.8087 3.91488 19.9207 4.57373Z" fill="#252525"/>
</svg>
